<svg width="32" height="29" viewBox="0 0 32 29" fill="none" xmlns="http://www.w3.org/2000/svg">
<path d="M20.0884 19.3428L8.42334 24.9032L9.21674 26.57C9.42757 27.0121 9.80532 27.3522 10.2669 27.5159C10.7285 27.6793 11.2362 27.6528 11.6783 27.4421L20.011 23.4698C20.2299 23.3655 20.426 23.2192 20.5881 23.0391C20.7504 22.8591 20.8756 22.6488 20.9566 22.4204C21.0377 22.1919 21.0727 21.9497 21.0602 21.7076C21.0475 21.4656 20.9874 21.2284 20.8831 21.0096L20.0884 19.3428Z" fill="#43913C" fill-opacity="0.1" stroke="#3E260F" stroke-width="1.29" stroke-linecap="round" stroke-linejoin="round"/>
<path d="M18.3791 5.05372C18.0809 4.99693 17.7745 4.99949 17.4774 5.06127C17.1802 5.12305 16.8982 5.24283 16.6473 5.41375C16.3965 5.58467 16.182 5.80338 16.0157 6.05736C15.8495 6.31135 15.7351 6.59561 15.6789 6.89388L15.2442 9.17673L13.0973 4.67369C12.3972 3.12428 11.1348 1.89852 9.56537 1.24429C7.996 0.590053 6.23675 0.556131 4.64332 1.14939C3.83187 1.48404 3.09709 1.98049 2.48382 2.60846C1.87056 3.23645 1.39166 3.98278 1.07634 4.80194C0.761036 5.62112 0.615919 6.49592 0.64985 7.37302C0.683782 8.25012 0.89605 9.11111 1.27371 9.90346L8.42364 24.9034L20.0886 19.3429L18.8591 16.7627C18.6908 16.4078 18.6394 16.0085 18.7125 15.6226L20.2126 7.75528C20.2696 7.4575 20.2675 7.15139 20.2063 6.85444C20.145 6.5575 20.0259 6.27554 19.8556 6.02466C19.6853 5.77378 19.4673 5.55891 19.214 5.39231C18.9606 5.22571 18.677 5.11066 18.3791 5.05372Z" fill="#43913C" fill-opacity="0.1" stroke="#3E260F" stroke-width="1.29" stroke-linecap="round" stroke-linejoin="round"/>
<path d="M17.8484 24.5005L18.7991 26.5007C19.01 26.9427 19.3877 27.2829 19.8492 27.4465C20.3109 27.61 20.8185 27.5835 21.2607 27.3728L29.5934 23.4005C29.8122 23.2962 30.0082 23.1499 30.1705 22.9697C30.3328 22.7897 30.458 22.5794 30.5389 22.351C30.62 22.1226 30.6551 21.8803 30.6425 21.6383C30.6299 21.3963 30.5697 21.1591 30.4654 20.9402L29.6654 19.2734" fill="#43913C" fill-opacity="0.1"/>
<path d="M17.8484 24.5005L18.7991 26.5007C19.01 26.9427 19.3877 27.2829 19.8492 27.4465C20.3109 27.61 20.8185 27.5835 21.2607 27.3728L29.5934 23.4005C29.8122 23.2962 30.0082 23.1499 30.1705 22.9697C30.3328 22.7897 30.458 22.5794 30.5389 22.351C30.62 22.1226 30.6551 21.8803 30.6425 21.6383C30.6299 21.3963 30.5697 21.1591 30.4654 20.9402L29.6654 19.2734" stroke="#3E260F" stroke-width="1.29" stroke-linecap="round" stroke-linejoin="round"/>
<path d="M25.1237 21.4415L29.6707 19.2734L28.4453 16.6931C28.2769 16.3383 28.2255 15.9391 28.2986 15.553L29.7987 7.68576C29.8619 7.38557 29.8646 7.07579 29.8066 6.77454C29.7487 6.47329 29.6314 6.1866 29.4614 5.93124C29.2914 5.67589 29.0721 5.45699 28.8165 5.28732C28.5609 5.11767 28.2741 5.00066 27.9727 4.94314C27.6715 4.88562 27.3617 4.88874 27.0616 4.95234C26.7614 5.01591 26.477 5.1387 26.225 5.31347C25.9728 5.48825 25.758 5.71153 25.5932 5.97027C25.4284 6.229 25.3169 6.518 25.265 6.82036L24.8263 9.10722L22.6795 4.60417C22.0412 3.21632 20.9543 2.08379 19.5939 1.38905C18.2334 0.694312 16.6786 0.47784 15.1802 0.774519" fill="#43913C" fill-opacity="0.1"/>
<path d="M25.1237 21.4415L29.6707 19.2734L28.4453 16.6931C28.2769 16.3383 28.2255 15.9391 28.2986 15.553L29.7987 7.68576C29.8619 7.38557 29.8646 7.07579 29.8066 6.77454C29.7487 6.47329 29.6314 6.1866 29.4614 5.93124C29.2914 5.67589 29.0721 5.45699 28.8165 5.28732C28.5609 5.11767 28.2741 5.00066 27.9727 4.94314C27.6715 4.88562 27.3617 4.88874 27.0616 4.95234C26.7614 5.01591 26.477 5.1387 26.225 5.31347C25.9728 5.48825 25.758 5.71153 25.5932 5.97027C25.4284 6.229 25.3169 6.518 25.265 6.82036L24.8263 9.10722L22.6795 4.60417C22.0412 3.21632 20.9543 2.08379 19.5939 1.38905C18.2334 0.694312 16.6786 0.47784 15.1802 0.774519" stroke="#3E260F" stroke-width="1.29" stroke-linecap="round" stroke-linejoin="round"/>
</svg>
