<svg width="34" height="40" viewBox="0 0 34 40" fill="none" xmlns="http://www.w3.org/2000/svg">
<path d="M31.898 0H5.7647C2.58094 0 0 2.58095 0 5.7647V38.0471C0 38.6838 0.516187 39.2 1.15294 39.2H28.8235C29.7111 39.2 30.2658 38.2392 29.822 37.4706C29.616 37.1139 29.2354 36.8941 28.8235 36.8941H2.30587V36.5098C2.30587 34.5995 3.85444 33.051 5.7647 33.051H31.898C32.5348 33.051 33.051 32.5348 33.051 31.898V1.15294C33.051 0.516187 32.5348 0 31.898 0ZM14.6039 2.30588H24.5961V17.2941L20.2898 14.0659C19.8799 13.7584 19.3162 13.7584 18.9063 14.0659L14.6039 17.2941V2.30588ZM30.7451 30.7451H5.7647C4.51709 30.7433 3.30287 31.148 2.30587 31.898V5.7647C2.30587 3.85445 3.85444 2.30588 5.7647 2.30588H12.298V19.6C12.298 20.4875 13.2588 21.0423 14.0274 20.5985C14.0674 20.5754 14.1059 20.55 14.1427 20.5224L19.6 16.4294L25.0592 20.5224C25.7703 21.0534 26.7896 20.6155 26.894 19.7341C26.8992 19.6896 26.9019 19.6448 26.902 19.6V2.30588H30.7451V30.7451Z" fill="#3E260F"/>
</svg>
