<svg width="16" height="10" viewBox="0 0 16 10" fill="none" xmlns="http://www.w3.org/2000/svg">
<path d="M5.33333 8.66667C5.33333 8.48985 5.40357 8.32029 5.5286 8.19526C5.65362 8.07024 5.82319 8 6 8H10C10.1768 8 10.3464 8.07024 10.4714 8.19526C10.5964 8.32029 10.6667 8.48985 10.6667 8.66667C10.6667 8.84348 10.5964 9.01305 10.4714 9.13807C10.3464 9.2631 10.1768 9.33333 10 9.33333H6C5.82319 9.33333 5.65362 9.2631 5.5286 9.13807C5.40357 9.01305 5.33333 8.84348 5.33333 8.66667ZM2.66667 4.66667C2.66667 4.48986 2.7369 4.32029 2.86193 4.19526C2.98695 4.07024 3.15652 4 3.33333 4H12.6667C12.8435 4 13.013 4.07024 13.1381 4.19526C13.2631 4.32029 13.3333 4.48986 13.3333 4.66667C13.3333 4.84348 13.2631 5.01305 13.1381 5.13807C13.013 5.26309 12.8435 5.33333 12.6667 5.33333H3.33333C3.15652 5.33333 2.98695 5.26309 2.86193 5.13807C2.7369 5.01305 2.66667 4.84348 2.66667 4.66667ZM0 0.666667C0 0.489856 0.070238 0.320287 0.195262 0.195262C0.320287 0.070238 0.489856 0 0.666667 0H15.3333C15.5101 0 15.6797 0.070238 15.8047 0.195262C15.9298 0.320287 16 0.489856 16 0.666667C16 0.843478 15.9298 1.01305 15.8047 1.13807C15.6797 1.2631 15.5101 1.33333 15.3333 1.33333H0.666667C0.489856 1.33333 0.320287 1.2631 0.195262 1.13807C0.070238 1.01305 0 0.843478 0 0.666667Z" fill="#B9732C"/>
</svg>
