<svg width="21" height="21" viewBox="0 0 21 21" fill="none" xmlns="http://www.w3.org/2000/svg">
<path d="M8.11279 10.978C8.52435 11.5282 9.04943 11.9835 9.6524 12.3129C10.2554 12.6423 10.9222 12.8382 11.6075 12.8873C12.2928 12.9364 12.9807 12.8375 13.6245 12.5974C14.2683 12.3572 14.8529 11.9814 15.3386 11.4955L18.2136 8.62049C19.0865 7.71678 19.5694 6.50639 19.5585 5.25003C19.5476 3.99367 19.0437 2.79186 18.1553 1.90345C17.2668 1.01503 16.065 0.511099 14.8087 0.500181C13.5523 0.489264 12.3419 0.972237 11.4382 1.84508L9.78988 3.48383" fill="#43913C" fill-opacity="0.1"/>
<path d="M8.11279 10.978C8.52435 11.5282 9.04943 11.9835 9.6524 12.3129C10.2554 12.6423 10.9222 12.8382 11.6075 12.8873C12.2928 12.9364 12.9807 12.8375 13.6245 12.5974C14.2683 12.3572 14.8529 11.9814 15.3386 11.4955L18.2136 8.62049C19.0865 7.71678 19.5694 6.50639 19.5585 5.25003C19.5476 3.99367 19.0437 2.79186 18.1553 1.90345C17.2668 1.01503 16.065 0.511099 14.8087 0.500181C13.5523 0.489264 12.3419 0.972237 11.4382 1.84508L9.78988 3.48383" stroke="#3E260F" stroke-linecap="round" stroke-linejoin="round"/>
<path d="M11.9459 9.06133C11.5344 8.51113 11.0093 8.05587 10.4063 7.72643C9.80332 7.397 9.13655 7.2011 8.45121 7.15201C7.76586 7.10293 7.07797 7.20181 6.43421 7.44196C5.79044 7.6821 5.20584 8.05789 4.72008 8.54383L1.84508 11.4188C0.972237 12.3226 0.489264 13.5329 0.500181 14.7893C0.511099 16.0457 1.01503 17.2475 1.90345 18.1359C2.79186 19.0243 3.99367 19.5282 5.25003 19.5391C6.50639 19.5501 7.71678 19.0671 8.62049 18.1942L10.2592 16.5555" fill="#43913C" fill-opacity="0.1"/>
<path d="M11.9459 9.06133C11.5344 8.51113 11.0093 8.05587 10.4063 7.72643C9.80332 7.397 9.13655 7.2011 8.45121 7.15201C7.76586 7.10293 7.07797 7.20181 6.43421 7.44196C5.79044 7.6821 5.20584 8.05789 4.72008 8.54383L1.84508 11.4188C0.972237 12.3226 0.489264 13.5329 0.500181 14.7893C0.511099 16.0457 1.01503 17.2475 1.90345 18.1359C2.79186 19.0243 3.99367 19.5282 5.25003 19.5391C6.50639 19.5501 7.71678 19.0671 8.62049 18.1942L10.2592 16.5555" stroke="#3E260F" stroke-linecap="round" stroke-linejoin="round"/>
</svg>
