<svg width="32" height="32" viewBox="0 0 32 32" fill="none" xmlns="http://www.w3.org/2000/svg">
<path d="M0.64502 12.9175V14.346C0.646066 17.3624 1.55745 20.3084 3.25997 22.7984C4.96249 25.2885 7.37688 27.2068 10.1873 28.3023V30.6451H21.101V28.2452C23.9115 27.1496 26.3259 25.2313 28.0284 22.7413C29.7309 20.2512 30.6423 17.3053 30.6433 14.2888V12.8604L0.64502 12.9175Z" fill="#43913C" fill-opacity="0.1" stroke="#3E260F" stroke-width="1.29" stroke-miterlimit="10"/>
<path d="M12.9156 12.9174L24.0579 1.77517C24.7815 1.05155 25.7629 0.64502 26.7863 0.64502C27.8097 0.64502 28.7911 1.05155 29.5147 1.77517C30.2383 2.49879 30.6449 3.48023 30.6449 4.50359C30.6449 5.52694 30.2383 6.50838 29.5147 7.23201L23.8008 12.946" fill="#43913C" fill-opacity="0.1"/>
<path d="M12.9156 12.9174L24.0579 1.77517C24.7815 1.05155 25.7629 0.64502 26.7863 0.64502C27.8097 0.64502 28.7911 1.05155 29.5147 1.77517C30.2383 2.49879 30.6449 3.48023 30.6449 4.50359C30.6449 5.52694 30.2383 6.50838 29.5147 7.23201L23.8008 12.946" stroke="#3E260F" stroke-width="1.29" stroke-miterlimit="10"/>
</svg>
