<svg width="24" height="30" viewBox="0 0 24 30" fill="none" xmlns="http://www.w3.org/2000/svg">
<path d="M10.5972 0V8.16522C10.5985 9.09274 10.3402 10.0021 9.85153 10.7905C9.36285 11.5788 8.66329 12.2147 7.83201 12.6261C7.1376 12.9738 6.37167 13.1549 5.59505 13.1549C4.81843 13.1549 4.0525 12.9738 3.35809 12.6261C2.53846 12.2051 1.85124 11.5656 1.37243 10.7783C0.89362 9.99102 0.64188 9.08665 0.645049 8.16522V0" stroke="#3E260F" stroke-width="1.29" stroke-miterlimit="10"/>
<path d="M5.65381 0V30" stroke="#3E260F" stroke-width="1.29" stroke-miterlimit="10"/>
<path d="M15.6451 30.0001V1.30444C16.6294 1.30444 17.6041 1.49853 18.5133 1.8756C19.4225 2.25267 20.2484 2.80532 20.9438 3.50193C21.6392 4.19854 22.1904 5.02544 22.5659 5.9353C22.9414 6.84517 23.1338 7.82015 23.1321 8.80444V16.3044L15.6321 20.0479" fill="#43913C" fill-opacity="0.1"/>
<path d="M15.6451 30.0001V1.30444C16.6294 1.30444 17.6041 1.49853 18.5133 1.8756C19.4225 2.25267 20.2484 2.80532 20.9438 3.50193C21.6392 4.19854 22.1904 5.02544 22.5659 5.9353C22.9414 6.84517 23.1338 7.82015 23.1321 8.80444V16.3044L15.6321 20.0479" stroke="#3E260F" stroke-width="1.29" stroke-miterlimit="10"/>
</svg>
