<svg width="25" height="25" viewBox="0 0 25 25" fill="none" xmlns="http://www.w3.org/2000/svg">
<path d="M16.1348 0.5C18.3533 0.5 20.481 1.38133 22.0499 2.95011C23.6186 4.51888 24.5 6.64658 24.5 8.86517" stroke="#3E260F" stroke-linecap="round" stroke-linejoin="round"/>
<path d="M16.1348 5.96378C16.9043 5.96378 17.6422 6.26945 18.1864 6.81358C18.7305 7.35769 19.0361 8.09567 19.0361 8.86519" stroke="#3E260F" stroke-linecap="round" stroke-linejoin="round"/>
<path d="M12.8938 9.30057H6.21438L4.55661 12.1128C4.26765 12.1357 3.98016 12.1589 3.6942 12.182C3.65567 12.1852 3.61716 12.1883 3.57866 12.1914C2.19313 12.3035 1.05258 13.3032 0.849577 14.5916C0.665678 15.7589 0.5 16.961 0.5 18.1888C0.5 19.4166 0.665678 20.6188 0.849579 21.7859C1.05258 23.0743 2.19313 24.0742 3.57866 24.1862L3.69422 24.1956C5.58679 24.3486 7.54661 24.5072 9.5541 24.5072C11.5616 24.5072 13.5214 24.3486 15.414 24.1956L15.5295 24.1862C16.9151 24.0742 18.0556 23.0743 18.2586 21.7859C18.4424 20.6188 18.6082 19.4166 18.6082 18.1888C18.6082 16.961 18.4424 15.7589 18.2586 14.5916C18.0556 13.3032 16.9151 12.3035 15.5295 12.1914L15.414 12.182C15.128 12.1589 14.8405 12.1357 14.5516 12.1128L12.8938 9.30057Z" fill="#43913C" fill-opacity="0.1" stroke="#3E260F" stroke-linecap="round" stroke-linejoin="round"/>
<path d="M9.55356 20.5936C11.2575 20.5936 12.216 19.6352 12.216 17.9311C12.216 16.2272 11.2575 15.2687 9.55356 15.2687C7.8496 15.2687 6.89111 16.2272 6.89111 17.9311C6.89111 19.6352 7.8496 20.5936 9.55356 20.5936Z" stroke="#3E260F" stroke-linecap="round" stroke-linejoin="round"/>
</svg>
