<svg width="40" height="40" viewBox="0 0 40 40" fill="none" xmlns="http://www.w3.org/2000/svg">
<circle cx="20" cy="20" r="20" fill="url(#paint0_linear_24_1505)"/>
<path d="M20 16.75C19.7474 16.7491 19.5044 16.6527 19.32 16.48C19.2323 16.396 19.1625 16.2951 19.1148 16.1834C19.0671 16.0717 19.0425 15.9515 19.0425 15.83C19.0425 15.7085 19.0671 15.5883 19.1148 15.4766C19.1625 15.3649 19.2323 15.264 19.32 15.18C19.4676 15.0414 19.5854 14.8741 19.6662 14.6884C19.7471 14.5027 19.7892 14.3025 19.79 14.1C19.7931 13.8939 19.7529 13.6895 19.6719 13.5C19.591 13.3105 19.4711 13.1402 19.32 13C19.0028 12.6902 18.7509 12.3199 18.5792 11.9112C18.4074 11.5024 18.3193 11.0634 18.32 10.62C18.3193 10.1766 18.4074 9.73759 18.5792 9.32882C18.7509 8.92006 19.0028 8.54983 19.32 8.24C19.5049 8.06851 19.7478 7.97321 20 7.97321C20.2522 7.97321 20.4951 8.06851 20.68 8.24C20.7677 8.32401 20.8375 8.42491 20.8852 8.53662C20.9329 8.64833 20.9575 8.76854 20.9575 8.89C20.9575 9.01146 20.9329 9.13167 20.8852 9.24338C20.8375 9.35509 20.7677 9.45599 20.68 9.54C20.5324 9.67863 20.4146 9.8459 20.3338 10.0316C20.2529 10.2173 20.2108 10.4175 20.21 10.62C20.2098 10.8212 20.2515 11.0202 20.3324 11.2044C20.4133 11.3887 20.5317 11.554 20.68 11.69C21.0019 11.9972 21.2581 12.3665 21.4332 12.7756C21.6082 13.1847 21.6985 13.625 21.6985 14.07C21.6985 14.515 21.6082 14.9553 21.4332 15.3644C21.2581 15.7735 21.0019 16.1428 20.68 16.45C20.5003 16.6336 20.2568 16.7411 20 16.75Z" fill="white"/>
<path d="M20 18.5C17.19 18.5 8 18.73 8 21.75C8 27.41 13.37 32 20 32C26.63 32 32 27.41 32 21.75C32 18.73 22.81 18.5 20 18.5ZM20 20.5C23.0319 20.4134 26.0611 20.75 29 21.5C29.0663 21.5 29.1299 21.5263 29.1768 21.5732C29.2237 21.6201 29.25 21.6837 29.25 21.75C29.25 21.8163 29.2237 21.8799 29.1768 21.9268C29.1299 21.9737 29.0663 22 29 22C26.0611 22.75 23.0319 23.0866 20 23C16.9681 23.0866 13.9389 22.75 11 22C10.9481 21.9849 10.9025 21.9533 10.87 21.91C10.8375 21.8667 10.82 21.8141 10.82 21.76C10.82 21.7059 10.8375 21.6533 10.87 21.61C10.9025 21.5667 10.9481 21.5351 11 21.52C13.938 20.7633 16.9672 20.4199 20 20.5Z" fill="white"/>
<path d="M15.26 14.65C15.2926 14.7147 15.3044 14.7879 15.2936 14.8595C15.2829 14.9312 15.2502 14.9977 15.2 15.05C15.063 15.1898 14.97 15.3667 14.9325 15.5588C14.8951 15.751 14.9148 15.9498 14.9894 16.1309C15.0639 16.3119 15.1899 16.467 15.3518 16.5771C15.5137 16.6871 15.7043 16.7473 15.9 16.75C16.0316 16.7508 16.1621 16.7255 16.2839 16.6758C16.4057 16.626 16.5166 16.5527 16.61 16.46C17.0386 16.0423 17.2925 15.4774 17.3204 14.8796C17.3482 14.2818 17.1479 13.6957 16.76 13.24C16.6837 13.1169 16.6136 12.9901 16.55 12.86C16.5174 12.7953 16.5056 12.7221 16.5164 12.6505C16.5271 12.5788 16.5598 12.5123 16.61 12.46C16.7963 12.2726 16.9008 12.0192 16.9008 11.755C16.9008 11.4908 16.7963 11.2374 16.61 11.05C16.4226 10.8638 16.1692 10.7592 15.905 10.7592C15.6408 10.7592 15.3874 10.8638 15.2 11.05C14.7714 11.4677 14.5175 12.0326 14.4896 12.6304C14.4618 13.2282 14.6621 13.8143 15.05 14.27C15.1263 14.3931 15.1964 14.5199 15.26 14.65Z" fill="white"/>
<path d="M23.45 14.65C23.4826 14.7147 23.4944 14.7879 23.4836 14.8595C23.4729 14.9312 23.4402 14.9977 23.39 15.05C23.253 15.1898 23.16 15.3667 23.1225 15.5588C23.0851 15.751 23.1048 15.9498 23.1794 16.1309C23.2539 16.3119 23.3799 16.467 23.5418 16.5771C23.7037 16.6871 23.8943 16.7473 24.09 16.75C24.2216 16.7508 24.3521 16.7255 24.4739 16.6758C24.5957 16.626 24.7066 16.5527 24.8 16.46C25.2358 16.0489 25.499 15.4875 25.5361 14.8895C25.5733 14.2916 25.3816 13.7019 25 13.24C24.9237 13.1169 24.8536 12.9901 24.79 12.86C24.7574 12.7953 24.7456 12.7221 24.7564 12.6505C24.7671 12.5788 24.7998 12.5123 24.85 12.46C25.0363 12.2726 25.1408 12.0192 25.1408 11.755C25.1408 11.4908 25.0363 11.2374 24.85 11.05C24.6626 10.8638 24.4092 10.7592 24.145 10.7592C23.8808 10.7592 23.6274 10.8638 23.44 11.05C23.0092 11.4664 22.7538 12.0317 22.7259 12.6302C22.698 13.2287 22.8998 13.8153 23.29 14.27C23.3494 14.394 23.4027 14.5209 23.45 14.65Z" fill="white"/>
<defs>
<linearGradient id="paint0_linear_24_1505" x1="20" y1="0" x2="20" y2="40" gradientUnits="userSpaceOnUse">
<stop stop-color="#B9732C"/>
<stop offset="1" stop-color="#B9732C" stop-opacity="0.75"/>
</linearGradient>
</defs>
</svg>
